<mxfile host="app.diagrams.net" modified="2022-07-01T12:53:19.530Z" agent="5.0 (Windows NT 10.0; Win64; x64) AppleWebKit/537.36 (KHTML, like Gecko) Chrome/103.0.5060.66 Safari/537.36 Edg/103.0.1264.44" etag="WkmW0TtmXd28eTwlusvS" version="16.6.4" type="github">
  <diagram id="z3FpU3YAXxM0l_sf-xmK" name="第 1 页">
    <mxGraphModel dx="1550" dy="2074" grid="1" gridSize="10" guides="1" tooltips="1" connect="1" arrows="1" fold="1" page="1" pageScale="1" pageWidth="827" pageHeight="1169" math="0" shadow="0">
      <root>
        <mxCell id="0" />
        <mxCell id="1" parent="0" />
        <mxCell id="kJsCzZWYqboc7YOsdeVZ-3" value="" style="edgeStyle=orthogonalEdgeStyle;rounded=0;orthogonalLoop=1;jettySize=auto;html=1;" edge="1" parent="1" source="kJsCzZWYqboc7YOsdeVZ-1" target="kJsCzZWYqboc7YOsdeVZ-2">
          <mxGeometry relative="1" as="geometry" />
        </mxCell>
        <mxCell id="kJsCzZWYqboc7YOsdeVZ-1" value="inquiries.js" style="rounded=0;whiteSpace=wrap;html=1;" vertex="1" parent="1">
          <mxGeometry x="170" y="20" width="120" height="60" as="geometry" />
        </mxCell>
        <mxCell id="kJsCzZWYqboc7YOsdeVZ-35" value="" style="edgeStyle=orthogonalEdgeStyle;rounded=0;orthogonalLoop=1;jettySize=auto;html=1;fontColor=#000000;entryX=1.023;entryY=0.633;entryDx=0;entryDy=0;entryPerimeter=0;" edge="1" parent="1" source="kJsCzZWYqboc7YOsdeVZ-2" target="kJsCzZWYqboc7YOsdeVZ-21">
          <mxGeometry relative="1" as="geometry">
            <mxPoint x="790" y="-30" as="targetPoint" />
            <Array as="points">
              <mxPoint x="150" y="150" />
              <mxPoint x="150" y="-240" />
              <mxPoint x="790" y="-240" />
              <mxPoint x="790" y="-32" />
            </Array>
          </mxGeometry>
        </mxCell>
        <mxCell id="kJsCzZWYqboc7YOsdeVZ-2" value="inquiries.default" style="shape=parallelogram;perimeter=parallelogramPerimeter;whiteSpace=wrap;html=1;fixedSize=1;rounded=0;" vertex="1" parent="1">
          <mxGeometry x="170" y="120" width="120" height="60" as="geometry" />
        </mxCell>
        <mxCell id="kJsCzZWYqboc7YOsdeVZ-6" value="" style="edgeStyle=orthogonalEdgeStyle;rounded=0;orthogonalLoop=1;jettySize=auto;html=1;" edge="1" parent="1" source="kJsCzZWYqboc7YOsdeVZ-4" target="kJsCzZWYqboc7YOsdeVZ-5">
          <mxGeometry relative="1" as="geometry" />
        </mxCell>
        <mxCell id="kJsCzZWYqboc7YOsdeVZ-4" value="hooks.mjs" style="whiteSpace=wrap;html=1;" vertex="1" parent="1">
          <mxGeometry x="400" y="30" width="120" height="60" as="geometry" />
        </mxCell>
        <mxCell id="kJsCzZWYqboc7YOsdeVZ-5" value="&lt;div style=&quot;font-family: &amp;#34;fira code&amp;#34; , &amp;#34;consolas&amp;#34; , &amp;#34;courier new&amp;#34; , monospace , &amp;#34;consolas&amp;#34; , &amp;#34;courier new&amp;#34; , monospace ; font-size: 14px ; line-height: 19px&quot;&gt;safe&lt;/div&gt;" style="shape=parallelogram;perimeter=parallelogramPerimeter;whiteSpace=wrap;html=1;fixedSize=1;" vertex="1" parent="1">
          <mxGeometry x="410" y="170" width="100" height="60" as="geometry" />
        </mxCell>
        <mxCell id="kJsCzZWYqboc7YOsdeVZ-7" value="" style="endArrow=classic;html=1;rounded=0;fontColor=#000000;entryX=1;entryY=0.5;entryDx=0;entryDy=0;" edge="1" parent="1" target="kJsCzZWYqboc7YOsdeVZ-31">
          <mxGeometry width="50" height="50" relative="1" as="geometry">
            <mxPoint x="630" y="310" as="sourcePoint" />
            <mxPoint x="705" y="510" as="targetPoint" />
            <Array as="points">
              <mxPoint x="630" y="410" />
            </Array>
          </mxGeometry>
        </mxCell>
        <mxCell id="kJsCzZWYqboc7YOsdeVZ-9" value="" style="endArrow=classic;html=1;rounded=0;fontColor=#000000;exitX=0.36;exitY=0.993;exitDx=0;exitDy=0;exitPerimeter=0;" edge="1" parent="1" source="kJsCzZWYqboc7YOsdeVZ-5" target="kJsCzZWYqboc7YOsdeVZ-31">
          <mxGeometry width="50" height="50" relative="1" as="geometry">
            <mxPoint x="460" y="260" as="sourcePoint" />
            <mxPoint x="410" y="330" as="targetPoint" />
            <Array as="points">
              <mxPoint x="420" y="330" />
              <mxPoint x="300" y="330" />
              <mxPoint x="300" y="410" />
            </Array>
          </mxGeometry>
        </mxCell>
        <mxCell id="kJsCzZWYqboc7YOsdeVZ-10" value="" style="endArrow=classic;html=1;rounded=0;fontColor=#000000;exitX=0.376;exitY=1.047;exitDx=0;exitDy=0;exitPerimeter=0;entryX=1;entryY=0.5;entryDx=0;entryDy=0;" edge="1" parent="1" source="kJsCzZWYqboc7YOsdeVZ-16" target="kJsCzZWYqboc7YOsdeVZ-31">
          <mxGeometry width="50" height="50" relative="1" as="geometry">
            <mxPoint x="550" y="510" as="sourcePoint" />
            <mxPoint x="210" y="410" as="targetPoint" />
            <Array as="points">
              <mxPoint x="460" y="250" />
              <mxPoint x="430" y="410" />
              <mxPoint x="350" y="410" />
            </Array>
          </mxGeometry>
        </mxCell>
        <mxCell id="kJsCzZWYqboc7YOsdeVZ-11" value="" style="endArrow=classic;html=1;rounded=0;fontColor=#000000;" edge="1" parent="1">
          <mxGeometry width="50" height="50" relative="1" as="geometry">
            <mxPoint x="680" y="-110" as="sourcePoint" />
            <mxPoint x="520" y="-110" as="targetPoint" />
            <Array as="points">
              <mxPoint x="520" y="-110" />
            </Array>
          </mxGeometry>
        </mxCell>
        <mxCell id="kJsCzZWYqboc7YOsdeVZ-12" value="" style="endArrow=classic;html=1;rounded=0;fontColor=#000000;" edge="1" parent="1">
          <mxGeometry width="50" height="50" relative="1" as="geometry">
            <mxPoint x="630" y="130" as="sourcePoint" />
            <mxPoint x="550" y="270" as="targetPoint" />
            <Array as="points">
              <mxPoint x="630" y="210" />
            </Array>
          </mxGeometry>
        </mxCell>
        <mxCell id="kJsCzZWYqboc7YOsdeVZ-13" value="" style="endArrow=classic;html=1;rounded=0;fontColor=#000000;entryX=0.5;entryY=0;entryDx=0;entryDy=0;" edge="1" parent="1" target="kJsCzZWYqboc7YOsdeVZ-18">
          <mxGeometry width="50" height="50" relative="1" as="geometry">
            <mxPoint x="560" y="130" as="sourcePoint" />
            <mxPoint x="650" y="230" as="targetPoint" />
            <Array as="points">
              <mxPoint x="650" y="130" />
            </Array>
          </mxGeometry>
        </mxCell>
        <mxCell id="kJsCzZWYqboc7YOsdeVZ-14" value="" style="endArrow=classic;html=1;rounded=0;fontColor=#000000;" edge="1" parent="1">
          <mxGeometry width="50" height="50" relative="1" as="geometry">
            <mxPoint x="460" y="130" as="sourcePoint" />
            <mxPoint x="380" y="250" as="targetPoint" />
            <Array as="points">
              <mxPoint x="380" y="130" />
            </Array>
          </mxGeometry>
        </mxCell>
        <mxCell id="kJsCzZWYqboc7YOsdeVZ-15" value="" style="endArrow=classic;html=1;rounded=0;fontColor=#000000;" edge="1" parent="1">
          <mxGeometry width="50" height="50" relative="1" as="geometry">
            <mxPoint x="460" y="130" as="sourcePoint" />
            <mxPoint x="560" y="170" as="targetPoint" />
            <Array as="points">
              <mxPoint x="560" y="130" />
            </Array>
          </mxGeometry>
        </mxCell>
        <mxCell id="kJsCzZWYqboc7YOsdeVZ-16" value="display" style="shape=parallelogram;perimeter=parallelogramPerimeter;whiteSpace=wrap;html=1;fixedSize=1;labelBackgroundColor=none;fontColor=#000000;" vertex="1" parent="1">
          <mxGeometry x="510" y="170" width="100" height="60" as="geometry" />
        </mxCell>
        <mxCell id="kJsCzZWYqboc7YOsdeVZ-33" value="" style="edgeStyle=orthogonalEdgeStyle;rounded=0;orthogonalLoop=1;jettySize=auto;html=1;fontColor=#000000;entryX=0.5;entryY=0;entryDx=0;entryDy=0;" edge="1" parent="1" source="kJsCzZWYqboc7YOsdeVZ-17" target="kJsCzZWYqboc7YOsdeVZ-31">
          <mxGeometry relative="1" as="geometry">
            <mxPoint x="230" y="280" as="targetPoint" />
          </mxGeometry>
        </mxCell>
        <mxCell id="kJsCzZWYqboc7YOsdeVZ-17" value="distribute" style="shape=parallelogram;perimeter=parallelogramPerimeter;whiteSpace=wrap;html=1;fixedSize=1;labelBackgroundColor=none;fontColor=#000000;" vertex="1" parent="1">
          <mxGeometry x="320" y="250" width="120" height="60" as="geometry" />
        </mxCell>
        <mxCell id="kJsCzZWYqboc7YOsdeVZ-18" value="showAvaliable" style="shape=parallelogram;perimeter=parallelogramPerimeter;whiteSpace=wrap;html=1;fixedSize=1;labelBackgroundColor=none;fontColor=#000000;" vertex="1" parent="1">
          <mxGeometry x="590" y="260" width="120" height="60" as="geometry" />
        </mxCell>
        <mxCell id="kJsCzZWYqboc7YOsdeVZ-20" value="destroy" style="shape=parallelogram;perimeter=parallelogramPerimeter;whiteSpace=wrap;html=1;fixedSize=1;labelBackgroundColor=none;fontColor=#000000;" vertex="1" parent="1">
          <mxGeometry x="450" y="270" width="120" height="60" as="geometry" />
        </mxCell>
        <mxCell id="kJsCzZWYqboc7YOsdeVZ-22" value="" style="edgeStyle=orthogonalEdgeStyle;rounded=0;orthogonalLoop=1;jettySize=auto;html=1;fontColor=#000000;" edge="1" parent="1" source="kJsCzZWYqboc7YOsdeVZ-21">
          <mxGeometry relative="1" as="geometry">
            <mxPoint x="540" y="-40" as="targetPoint" />
            <Array as="points">
              <mxPoint x="560" y="-40" />
            </Array>
          </mxGeometry>
        </mxCell>
        <mxCell id="kJsCzZWYqboc7YOsdeVZ-25" value="" style="edgeStyle=orthogonalEdgeStyle;rounded=0;orthogonalLoop=1;jettySize=auto;html=1;fontColor=#000000;" edge="1" parent="1" source="kJsCzZWYqboc7YOsdeVZ-21" target="kJsCzZWYqboc7YOsdeVZ-24">
          <mxGeometry relative="1" as="geometry" />
        </mxCell>
        <mxCell id="kJsCzZWYqboc7YOsdeVZ-21" value="prompt.mjs" style="whiteSpace=wrap;html=1;labelBackgroundColor=none;fontColor=#000000;" vertex="1" parent="1">
          <mxGeometry x="620" y="-70" width="120" height="60" as="geometry" />
        </mxCell>
        <mxCell id="kJsCzZWYqboc7YOsdeVZ-30" value="" style="edgeStyle=orthogonalEdgeStyle;rounded=0;orthogonalLoop=1;jettySize=auto;html=1;fontColor=#000000;" edge="1" parent="1" source="kJsCzZWYqboc7YOsdeVZ-23" target="kJsCzZWYqboc7YOsdeVZ-4">
          <mxGeometry relative="1" as="geometry" />
        </mxCell>
        <mxCell id="kJsCzZWYqboc7YOsdeVZ-23" value="&lt;div style=&quot;font-family: &amp;#34;fira code&amp;#34; , &amp;#34;consolas&amp;#34; , &amp;#34;courier new&amp;#34; , monospace , &amp;#34;consolas&amp;#34; , &amp;#34;courier new&amp;#34; , monospace ; font-size: 14px ; line-height: 19px&quot;&gt;&lt;span style=&quot;background-color: rgb(255 , 255 , 255)&quot;&gt;distributeResources&lt;/span&gt;&lt;/div&gt;" style="shape=parallelogram;perimeter=parallelogramPerimeter;whiteSpace=wrap;html=1;fixedSize=1;labelBackgroundColor=none;fontColor=#000000;" vertex="1" parent="1">
          <mxGeometry x="430" y="-70" width="120" height="60" as="geometry" />
        </mxCell>
        <mxCell id="kJsCzZWYqboc7YOsdeVZ-29" value="" style="edgeStyle=orthogonalEdgeStyle;rounded=0;orthogonalLoop=1;jettySize=auto;html=1;fontColor=#000000;entryX=-0.023;entryY=0.633;entryDx=0;entryDy=0;entryPerimeter=0;" edge="1" parent="1" source="kJsCzZWYqboc7YOsdeVZ-24" target="kJsCzZWYqboc7YOsdeVZ-4">
          <mxGeometry relative="1" as="geometry">
            <mxPoint x="350" y="-10" as="targetPoint" />
            <Array as="points">
              <mxPoint x="350" y="-180" />
              <mxPoint x="350" y="68" />
            </Array>
          </mxGeometry>
        </mxCell>
        <mxCell id="kJsCzZWYqboc7YOsdeVZ-24" value="&lt;div style=&quot;font-family: &amp;#34;fira code&amp;#34; , &amp;#34;consolas&amp;#34; , &amp;#34;courier new&amp;#34; , monospace , &amp;#34;consolas&amp;#34; , &amp;#34;courier new&amp;#34; , monospace ; font-size: 14px ; line-height: 19px&quot;&gt;&lt;span style=&quot;background-color: rgb(255 , 255 , 255)&quot;&gt;operate&lt;/span&gt;&lt;/div&gt;" style="shape=parallelogram;perimeter=parallelogramPerimeter;whiteSpace=wrap;html=1;fixedSize=1;fontColor=#000000;labelBackgroundColor=none;" vertex="1" parent="1">
          <mxGeometry x="620" y="-210" width="120" height="60" as="geometry" />
        </mxCell>
        <mxCell id="kJsCzZWYqboc7YOsdeVZ-28" value="" style="edgeStyle=orthogonalEdgeStyle;rounded=0;orthogonalLoop=1;jettySize=auto;html=1;fontColor=#000000;entryX=0;entryY=0.25;entryDx=0;entryDy=0;" edge="1" parent="1" source="kJsCzZWYqboc7YOsdeVZ-26" target="kJsCzZWYqboc7YOsdeVZ-4">
          <mxGeometry relative="1" as="geometry">
            <mxPoint x="324" y="-120" as="targetPoint" />
            <Array as="points">
              <mxPoint x="380" y="-120" />
              <mxPoint x="380" y="45" />
            </Array>
          </mxGeometry>
        </mxCell>
        <mxCell id="kJsCzZWYqboc7YOsdeVZ-26" value="&lt;div style=&quot;font-family: &amp;#34;fira code&amp;#34; , &amp;#34;consolas&amp;#34; , &amp;#34;courier new&amp;#34; , monospace , &amp;#34;consolas&amp;#34; , &amp;#34;courier new&amp;#34; , monospace ; font-size: 14px ; line-height: 19px&quot;&gt;&lt;span style=&quot;background-color: rgb(255 , 255 , 255)&quot;&gt;cancelProcess&lt;/span&gt;&lt;/div&gt;" style="shape=parallelogram;perimeter=parallelogramPerimeter;whiteSpace=wrap;html=1;fixedSize=1;labelBackgroundColor=#FFFFFF;fontColor=#000000;" vertex="1" parent="1">
          <mxGeometry x="414" y="-150" width="120" height="60" as="geometry" />
        </mxCell>
        <mxCell id="kJsCzZWYqboc7YOsdeVZ-31" value="main.mjs" style="whiteSpace=wrap;html=1;labelBackgroundColor=#FFFFFF;fontColor=#000000;" vertex="1" parent="1">
          <mxGeometry x="80" y="380" width="120" height="60" as="geometry" />
        </mxCell>
      </root>
    </mxGraphModel>
  </diagram>
</mxfile>
